<svg width="911" height="911" viewBox="0 0 911 911" fill="none" xmlns="http://www.w3.org/2000/svg">
<path d="M402.661 329.349C435.447 318.094 471.317 319.97 502.749 334.584C533.69 348.97 557.966 374.597 570.664 406.225L571.26 407.735C572.576 411.683 574.026 415.496 575.195 419.43C576.361 423.354 577.146 427.411 578.006 431.441C578.856 435.422 579.235 439.489 579.71 443.582L580.138 455.881L579.599 468.162C579.125 472.236 578.453 476.267 577.887 480.367C577.609 482.379 577.142 484.359 576.624 486.348C576.109 488.327 575.539 490.333 575.074 492.35C574.157 496.331 572.498 500.056 571.169 504.016C563.392 524.373 550.752 542.519 534.351 556.869C517.949 571.219 498.286 581.338 477.075 586.342C455.865 591.346 433.752 591.082 412.667 585.576C391.911 580.156 372.771 569.817 356.863 555.439L356.108 554.752C342.511 542.214 331.663 526.989 324.255 510.041C316.839 492.951 313.014 474.519 313.016 455.889L313.804 441.981C314.389 437.485 315.198 432.793 315.92 428.211C316.637 423.66 318.283 419.305 319.497 414.723C320.682 410.251 322.723 406.113 324.413 401.731C331.844 384.805 342.695 369.597 356.286 357.065L356.287 357.066C369.74 344.824 385.507 335.398 402.66 329.348L402.661 329.349ZM502.145 342.718C479.739 333.473 455.092 331.091 431.331 335.875C407.57 340.659 385.765 352.393 368.683 369.589C351.664 386.699 340.087 408.461 335.406 432.136C330.726 455.81 333.151 480.34 342.378 502.64C351.605 524.939 367.221 544.012 387.261 557.458C407.301 570.904 430.87 578.123 455.003 578.207H455.004C487.511 578.261 518.71 565.404 541.741 542.462C564.767 519.525 577.745 488.385 577.822 455.886V455.863C577.832 431.633 570.647 407.946 557.178 387.804C543.704 367.656 524.55 351.963 502.145 342.718Z" fill="#614DD5" stroke="#614DD5"/>
<path d="M395.33 316.257C413.67 309.408 433.181 306.243 452.746 306.945C472.311 307.647 491.545 312.201 509.347 320.347C527.149 328.494 543.169 340.073 556.49 354.419L556.493 354.422C562.923 361.24 568.669 368.672 573.647 376.612V376.613C578.557 384.55 582.772 392.896 586.244 401.558V401.559C593.191 418.819 596.674 437.277 596.497 455.881L596.997 455.886L596.497 455.891C596.687 474.517 593.211 492.997 586.267 510.281V510.282C582.802 518.942 578.595 527.288 573.694 535.224C568.702 543.169 562.948 550.609 556.516 557.44L556.512 557.444C543.211 571.83 527.196 583.444 509.39 591.617C491.583 599.789 472.335 604.36 452.755 605.064C433.175 605.768 413.649 602.593 395.301 595.721C377.526 589.064 361.197 579.064 347.193 566.269L345.846 565.022C338.495 558.042 331.837 550.367 325.965 542.105L325.964 542.103L324.861 540.542C319.402 532.702 314.761 524.32 311.013 515.528L311.011 515.525C302.84 496.72 298.624 476.435 298.624 455.931C298.624 435.428 302.839 415.143 311.01 396.337L311.011 396.338C319.195 377.676 331.048 360.851 345.867 346.863C360.182 333.507 376.99 323.107 395.33 316.257ZM468.905 318.198C434.786 314.775 400.613 324.165 373.033 344.542C345.453 364.918 326.437 394.824 319.685 428.444C312.932 462.063 318.925 496.992 336.498 526.438C354.071 555.884 381.968 577.741 414.763 587.758C447.558 597.776 482.906 595.237 513.934 580.637C544.961 566.037 569.449 540.418 582.635 508.764C589.61 492.006 593.218 474.039 593.255 455.887C593.315 421.597 580.619 388.509 557.636 363.06C534.653 337.611 503.025 321.62 468.905 318.198Z" fill="#614DD5" stroke="#614DD5"/>
<path d="M389.844 302.354C410.006 294.655 431.488 291.006 453.062 291.616C474.635 292.226 495.876 297.083 515.571 305.908C535.266 314.734 553.028 327.356 567.842 343.051L567.843 343.052C574.586 350.13 580.676 357.802 586.036 365.975L587.099 367.616C592.28 375.861 596.766 384.521 600.51 393.508L601.249 395.31C609.032 414.548 612.952 435.13 612.787 455.882L613.287 455.886L612.787 455.89C612.952 476.649 609.032 497.238 601.249 516.484L601.247 516.488C593.561 535.891 582.221 553.638 567.843 568.766L567.841 568.768C549.194 588.596 525.905 603.47 500.073 612.049C474.242 620.627 446.682 622.64 419.878 617.906C393.074 613.172 367.87 601.84 346.54 584.932C325.21 568.024 308.426 546.071 297.699 521.056L297.698 521.055C288.838 500.475 284.269 478.304 284.269 455.897C284.269 433.491 288.837 411.32 297.697 390.74L297.698 390.741C306.569 370.309 319.442 351.859 335.558 336.481C351.234 321.649 369.682 310.052 389.844 302.354ZM470.408 302.884C432.472 299.099 394.484 309.559 363.831 332.229C333.179 354.9 312.052 388.159 304.562 425.541C297.071 462.923 303.751 501.754 323.302 534.484C342.853 567.215 373.878 591.504 410.344 602.629C446.81 613.754 486.11 610.918 520.602 594.675C555.093 578.431 582.311 549.941 596.962 514.743C604.725 496.091 608.733 476.09 608.756 455.887C608.797 417.762 594.658 380.984 569.088 352.705C543.518 324.426 508.345 306.668 470.408 302.884Z" fill="#614DD5" stroke="#614DD5"/>
<path d="M418.922 278.896C453.582 272.901 489.227 277.193 521.456 291.224L522.988 291.899C532.903 296.363 542.385 301.727 551.313 307.927L553.092 309.179C562.449 315.882 571.185 323.413 579.194 331.68V331.681C595.105 348.254 607.68 367.734 616.231 389.058V389.06C624.839 410.278 629.181 432.985 629.011 455.882L629.511 455.886L629.011 455.889C629.153 478.768 624.788 501.451 616.164 522.644L616.163 522.646C607.634 543.983 595.066 563.472 579.149 580.045L579.148 580.046C558.65 601.533 533.138 617.595 504.9 626.789C476.663 635.983 446.585 638.021 417.366 632.722C388.147 627.422 360.7 614.95 337.49 596.425C314.28 577.9 296.034 553.901 284.388 526.584C274.856 504.237 269.941 480.193 269.941 455.897C269.941 431.602 274.855 407.556 284.387 385.209C293.946 362.982 307.846 342.887 325.271 326.101C351.11 301.419 383.712 284.987 418.922 278.896ZM472.012 287.608C430.267 283.465 388.472 294.995 354.757 319.957C321.041 344.919 297.814 381.527 289.593 422.664C281.371 463.801 288.743 506.525 310.274 542.528C331.805 578.532 365.957 605.24 406.088 617.461C446.219 629.681 489.46 626.541 527.403 608.648C565.346 590.756 595.279 559.392 611.381 520.655C619.923 500.128 624.343 478.12 624.393 455.887L624.394 455.386H624.322C624.223 413.614 608.66 373.352 580.621 342.374C552.47 311.272 513.757 291.752 472.012 287.608Z" fill="#614DD5" stroke="#614DD5"/>
<path d="M344.708 292.064C377.528 270.919 415.939 260.108 454.97 261.031C505.812 262.31 554.145 283.396 589.665 319.795C625.186 356.194 645.085 405.028 645.122 455.887V456.386H645.143C645.097 507.108 625.255 555.816 589.827 592.133C554.283 628.569 505.881 649.633 454.993 650.81H454.992C415.94 651.792 377.497 641 344.66 619.839C311.824 598.679 286.112 568.128 270.872 532.159C260.647 508.035 255.378 482.1 255.378 455.898C255.378 429.696 260.647 403.761 270.872 379.637C286.166 343.715 311.887 313.209 344.708 292.064ZM473.544 272.181C427.953 267.674 382.315 280.284 345.505 307.559C308.695 334.833 283.345 374.822 274.382 419.75C265.419 464.678 273.485 511.334 297.012 550.645C320.539 589.956 357.845 619.112 401.676 632.445C445.506 645.777 492.729 642.332 534.16 622.78C574.944 603.533 607.248 570.033 625.01 528.634L625.845 526.656C635.149 504.221 639.945 480.174 639.962 455.886C639.969 410.073 622.938 365.894 592.18 331.941C561.422 297.988 519.135 276.687 473.544 272.181Z" fill="#614DD5" stroke="#614DD5"/>
<path d="M412.062 249.361C452.677 241.714 494.646 246.206 532.723 262.276C570.8 278.346 603.297 305.281 626.153 339.715C649.009 374.15 661.211 414.557 661.232 455.886L661.222 458.16C660.748 505.879 644.046 552.043 613.827 589.036C583.129 626.616 540.373 652.416 492.815 662.057C445.258 671.698 395.83 664.587 352.92 641.93C310.01 619.273 276.261 582.465 257.402 537.755C240.933 498.778 236.604 455.739 244.981 414.262C253.359 372.786 274.052 334.801 304.357 305.271C333.984 276.454 371.446 257.008 412.062 249.361ZM475.005 256.431C425.505 251.539 375.955 265.232 335.99 294.846C296.026 324.461 268.504 367.881 258.776 416.662C249.049 465.442 257.811 516.097 283.359 558.776C308.908 601.455 349.417 633.107 397.007 647.576C444.597 662.045 495.867 658.296 540.848 637.061C585.828 615.826 621.304 578.621 640.375 532.681V532.68C650.457 508.331 655.66 482.24 655.688 455.886L655.676 453.556C655.116 404.649 636.685 357.602 603.812 321.314C570.417 284.45 524.505 261.323 475.005 256.431Z" fill="#614DD5" stroke="#614DD5"/>
<path d="M410.361 234.302C453.633 226.214 498.31 230.956 538.897 247.921L540.827 248.738C567.804 260.41 592.269 277.191 612.871 298.156L612.872 298.157C633.46 318.93 649.749 343.56 660.806 370.636C671.711 397.343 677.313 425.913 677.307 454.753L677.229 454.676L677.236 455.889C677.403 485.139 671.798 514.135 660.742 541.216C649.686 568.296 633.396 592.93 612.805 613.705L612.803 613.707C592.218 634.722 567.751 651.542 540.759 663.237C499.667 680.86 454.266 685.877 410.318 677.652C366.37 669.427 325.856 648.33 293.919 617.039C272.58 595.992 255.636 570.914 244.071 543.263C232.506 515.612 226.55 485.937 226.55 455.965C226.55 425.992 232.506 396.318 244.071 368.667C255.636 341.016 272.579 315.938 293.918 294.89L293.919 294.891C325.875 263.607 366.403 242.519 410.361 234.302ZM476.646 241.045C423.301 235.798 369.911 250.578 326.857 282.51C283.804 314.441 254.165 361.244 243.702 413.815C233.24 466.386 242.702 520.97 270.249 566.952C297.796 612.934 341.459 647.03 392.748 662.607C444.037 678.185 499.286 674.131 547.753 651.235C596.219 628.339 634.439 588.238 654.98 538.728V538.727C665.855 512.462 671.457 484.314 671.468 455.886V455.885C671.447 402.283 651.494 350.605 615.486 310.897C579.479 271.19 529.991 246.291 476.646 241.045Z" fill="#614DD5" stroke="#614DD5"/>
<path d="M406.785 219.083C453.44 210.019 501.734 214.978 545.573 233.333C589.412 251.687 626.833 282.616 653.112 322.216C679.343 361.743 693.3 408.14 693.233 455.574L693.165 455.62L693.167 455.888C693.291 487.204 687.242 518.236 675.365 547.212C663.489 576.189 646.018 602.541 623.951 624.761L623.949 624.762C590.612 658.646 547.989 681.9 501.454 691.593C454.919 701.287 406.556 696.985 362.462 679.23L361.08 678.67C332.104 666.831 305.721 649.428 283.428 627.442C260.735 604.998 242.72 578.276 230.425 548.823C218.129 519.369 211.798 487.769 211.798 455.852C211.798 423.935 218.129 392.335 230.425 362.881C242.72 333.428 260.736 306.706 283.429 284.262V284.261C317.206 250.827 360.131 228.148 406.785 219.083ZM478.276 225.337C421.024 219.714 363.725 235.583 317.523 269.86C271.321 304.136 239.517 354.37 228.296 410.793C217.074 467.217 227.238 525.797 256.809 575.143C286.38 624.489 333.245 661.075 388.293 677.787C443.341 694.498 502.636 690.139 554.649 665.56C606.256 641.173 647.034 598.608 669.194 546.042L669.715 544.797C681.292 516.755 687.275 486.721 687.329 456.386H687.397V455.886C687.368 398.358 665.945 342.896 627.295 300.286C588.645 257.675 535.529 230.961 478.276 225.337Z" fill="#614DD5" stroke="#614DD5"/>
<path d="M453.519 198.888C487.381 199.072 520.871 205.969 552.05 219.182C583.229 232.394 611.479 251.66 635.163 275.862L635.166 275.865C658.721 299.538 677.378 327.623 690.071 358.512C702.765 389.401 709.245 422.489 709.142 455.885L709.642 455.886L709.142 455.888C709.243 489.286 702.762 522.377 690.069 553.27C677.376 584.162 658.72 612.25 635.166 635.929L635.164 635.93C599.608 671.9 554.197 696.537 504.658 706.732C455.119 716.928 403.67 712.226 356.8 693.22C325.489 680.542 297.005 661.773 273.004 638.002L273.002 638C248.801 614.314 229.538 586.064 216.327 554.884C203.116 523.704 196.221 490.213 196.039 456.351C195.857 422.488 202.393 388.925 215.269 357.605C228.144 326.286 247.103 297.83 271.049 273.886C294.994 249.942 323.451 230.985 354.771 218.111C386.092 205.238 419.656 198.704 453.519 198.888ZM479.734 209.132C418.48 203.096 357.171 220.058 307.729 256.719C258.288 293.38 224.249 347.12 212.233 407.486C200.218 467.853 211.083 530.531 242.718 583.33C274.352 636.129 324.494 675.275 383.391 693.154C442.287 711.034 505.729 706.368 561.377 680.065C617.024 653.763 660.9 607.703 684.471 550.845V550.844C696.939 520.737 703.362 488.472 703.372 455.886C703.371 394.335 680.477 334.985 639.143 289.378C597.808 243.771 540.988 215.168 479.734 209.132Z" fill="#614DD5" stroke="#614DD5"/>
<path d="M413.904 187.266C453.669 181.372 494.247 184.387 532.704 196.091C571.162 207.796 606.539 227.897 636.278 254.945C666.017 281.992 689.375 315.308 704.665 352.486C718.086 385.3 724.928 420.432 724.8 455.884L725.3 455.886H724.8C724.851 509.46 709.028 561.849 679.325 606.436C649.623 651.023 607.374 685.808 557.915 706.4C508.456 726.992 454.005 732.466 401.437 722.132C348.869 711.798 300.541 686.119 262.558 648.337V648.336C234.022 620.023 212.133 585.723 198.473 547.916C184.813 510.108 179.722 469.739 183.57 429.724C187.419 389.71 200.109 351.049 220.724 316.539C241.339 282.028 269.364 252.528 302.772 230.171C336.181 207.815 374.14 193.16 413.904 187.266ZM481.218 193.501C416.053 187.109 350.839 205.18 298.258 244.201C245.677 283.221 209.488 340.402 196.727 404.625C183.965 468.847 195.545 535.52 229.213 591.678C262.881 647.837 316.232 689.467 378.891 708.473C441.549 727.479 509.037 722.503 568.23 694.512C627.424 666.521 674.092 617.516 699.159 557.027L699.16 557.026C712.327 525.103 719.122 490.915 719.165 456.386H719.257V455.886C719.22 390.408 694.831 327.284 650.836 278.79C606.841 230.295 546.383 199.894 481.218 193.501Z" fill="#614DD5" stroke="#614DD5"/>
<path d="M372.979 181.694C440.836 161.308 513.849 166.889 577.818 197.351C641.288 227.575 691.353 280.149 718.449 344.974L719.085 346.507C733.331 381.209 740.617 418.373 740.528 455.884C740.321 526.736 713.769 594.979 666.036 647.339C618.304 699.7 552.804 732.436 482.273 739.18C411.743 745.925 341.225 726.195 284.435 683.83C227.644 641.464 188.641 579.49 175.01 509.961C161.379 440.433 174.095 368.32 210.686 307.648C247.276 246.975 305.124 202.08 372.979 181.694ZM482.669 177.171C413.471 170.362 344.214 189.533 288.367 230.956C232.52 272.378 194.076 333.092 180.512 401.289C166.947 469.485 179.232 540.288 214.977 599.929C250.721 659.57 307.371 703.784 373.907 723.973C440.444 744.162 512.111 738.882 574.971 709.161C637.83 679.439 687.388 627.4 714.007 563.165C728.096 529.154 735.347 492.7 735.346 455.886C735.334 386.354 709.461 319.311 662.76 267.797C616.058 216.283 551.867 183.981 482.669 177.171Z" fill="#614DD5" stroke="#614DD5"/>
<path d="M510.499 159.462C583.911 173.165 649.604 213.681 694.801 273.131C739.646 332.117 761.134 405.56 755.186 479.377L755.04 481.121C751.661 519.917 740.808 557.687 723.085 592.35L722.235 593.998C687.785 660.258 629.924 711.338 559.903 737.304C489.882 763.269 412.706 762.264 343.385 734.484C274.063 706.705 217.551 654.136 184.838 587.001C152.126 519.867 145.551 442.966 166.392 371.252C187.234 299.539 234.002 238.14 297.602 198.996C361.201 159.852 437.086 145.76 510.499 159.462ZM616.222 207.469C554.567 167.467 480.238 151.825 407.691 163.585C335.144 175.346 269.562 213.667 223.702 271.097C177.841 328.528 154.98 400.963 159.562 474.314C164.144 547.666 195.844 616.691 248.495 667.967C301.147 719.243 370.987 749.105 444.434 751.745C517.881 754.385 589.685 729.614 645.882 682.25L645.882 682.249C675.639 657.139 700.168 626.422 718.072 591.847L718.859 590.314C751.957 525.383 759.952 450.503 741.274 380.016C722.45 308.973 677.876 247.471 616.222 207.469Z" fill="#614DD5" stroke="#614DD5"/>
<path d="M599.184 173.578C669.151 209.312 723.327 269.791 751.175 343.253C779.024 416.715 778.555 497.909 749.858 571.045C734.884 609.163 712.671 644.014 684.452 673.677L683.103 675.086C628.581 731.65 554.969 765.915 476.584 771.215C398.2 776.516 320.646 752.474 259.004 703.765C197.363 655.056 156.041 585.162 143.075 507.675C130.109 430.189 146.425 350.65 188.851 284.526C231.277 218.403 296.781 170.423 372.621 149.917C448.462 129.411 529.218 137.845 599.184 173.578ZM692.301 253.095C641.931 194.181 571.451 156.107 494.566 146.276C417.682 136.445 339.889 155.559 276.316 199.903C212.743 244.247 167.935 310.65 150.605 386.198C133.275 461.747 144.661 541.04 182.551 608.658C220.441 676.277 282.126 727.386 355.608 752.048C429.091 776.71 509.12 773.16 580.131 742.09C617.738 725.607 651.737 701.891 680.196 672.291L681.45 670.978C734.363 615.228 764.871 541.901 767.091 465.028C769.328 387.549 742.67 312.008 692.301 253.095Z" fill="#614DD5" stroke="#614DD5"/>
<path d="M535.59 133.587C615.495 153.467 685.15 202.353 731.011 270.74C776.872 339.127 795.66 422.125 783.722 503.596C777.477 546.093 763.055 586.972 741.262 623.971L740.219 625.73C697.965 696.402 630.937 748.833 552.17 772.828C473.403 796.823 388.527 790.667 314.048 755.556C239.569 720.445 180.81 658.889 149.197 582.858C117.584 506.828 115.378 421.758 143.007 344.192C170.636 266.625 226.125 202.105 298.685 163.18C371.243 124.256 455.686 113.707 535.59 133.587ZM650.18 191.5C584.543 143.087 503.246 120.816 422.1 129.018C340.953 137.219 265.757 175.307 211.136 235.875C156.514 296.443 126.371 375.162 126.568 456.722C126.766 538.282 157.29 616.853 212.204 677.156C267.119 737.459 342.498 775.182 423.684 782.991C504.869 790.8 586.057 768.136 651.459 719.405L651.459 719.404C686.089 693.568 715.301 661.176 737.434 624.07L738.407 622.425C779.391 552.699 793.23 470.283 777.23 390.958C761.103 311.008 715.817 239.913 650.18 191.5Z" fill="#614DD5" stroke="#614DD5"/>
<path d="M490.898 110.272C576.621 119.059 656.012 159.412 713.634 223.485C771.255 287.559 802.987 370.773 802.659 456.945C802.468 501.89 793.57 546.366 776.466 587.915L775.645 589.892C742.316 669.358 680.624 733.589 602.566 770.093C524.508 806.597 435.663 812.766 353.309 787.4C270.955 762.034 200.979 706.946 156.988 632.849C112.997 558.751 98.1346 470.941 115.294 386.494C132.453 302.048 180.406 227.001 249.827 175.948C319.247 124.896 405.175 101.486 490.898 110.272ZM618.865 152.349C543.492 111.741 455.71 100.618 372.591 121.141C289.472 141.665 216.957 192.369 169.148 263.392C121.339 334.415 101.654 420.681 113.92 505.413C126.187 590.145 169.529 667.287 235.517 721.836C301.505 776.384 385.423 804.441 470.95 800.549C556.477 796.657 637.499 761.096 698.261 700.78L698.261 700.779C730.445 668.823 756.027 630.848 773.549 589.015L773.742 588.554L773.698 588.535C806.53 509.658 808.921 421.396 780.395 340.85C751.813 260.146 694.237 192.957 618.865 152.349Z" fill="#614DD5" stroke="#614DD5"/>
<path d="M455.008 818.279C655.152 818.279 817.402 656.03 817.402 455.886C817.402 255.741 655.152 93.4922 455.008 93.4922C254.863 93.4922 92.6143 255.741 92.6143 455.886C92.6143 656.03 254.863 818.279 455.008 818.279Z" stroke="#614DD5" stroke-miterlimit="10"/>
</svg>
