<svg width="435" height="206" viewBox="0 0 435 206" fill="none" xmlns="http://www.w3.org/2000/svg">
<path d="M85.4626 205.448C82.1383 205.454 78.8174 205.237 75.5221 204.799C48.4254 201.185 23.8365 182.957 0.284989 149.066L0 148.656L0.376188 148.325L153.073 11.7926L153.427 12.374C160.711 23.9217 168.337 30.3739 176.762 32.0838C189.826 34.7399 203.254 25.4037 216.238 16.3752C229.416 7.25555 243.05 -2.27449 256.593 0.484205C265.302 2.25114 273.157 8.82869 280.589 20.593L341.178 57.653C346.651 57.195 352.159 57.3249 357.605 58.0406C384.701 61.6543 409.29 79.8822 432.842 113.773L434.381 115.996L340.904 58.793C299.501 62.3383 257.607 97.5515 216.934 131.819C173.878 168.081 129.465 205.448 85.4626 205.448ZM1.55034 148.85C24.7713 182.193 49.0181 200.148 75.6475 203.682C122.386 209.906 170.07 169.802 216.17 130.998C256.49 97.0842 298.008 62.1559 339.285 57.8582L279.768 21.4366L279.7 21.3226C272.416 9.77485 264.789 3.3113 256.319 1.60137C243.255 -1.05473 229.827 8.28151 216.843 17.31C203.665 26.4296 190.042 35.9597 176.488 33.201C167.881 31.4568 160.13 25.0275 152.777 13.5481L1.55034 148.85ZM342.853 58.7018L430.288 112.2C407.489 80.0304 383.607 62.6803 357.456 59.192C352.616 58.5581 347.726 58.3901 342.853 58.6904V58.7018Z" fill="white"/>
<path d="M101.433 176.79C98.3829 176.792 95.336 176.586 92.3136 176.174C68.3289 172.88 46.5671 156.601 25.6831 126.393L26.6293 125.743C47.2625 155.667 68.8077 171.797 92.5188 175.046C133.648 180.677 175.61 145.715 216.193 111.892C256.98 77.9101 299.147 42.8337 340.767 48.5334C364.798 51.8279 386.605 68.1065 407.443 98.3154L406.497 98.9651C385.864 69.0299 364.319 52.9109 340.608 49.662C299.489 44.0306 257.516 78.9931 216.934 112.816C179.11 144.29 140.101 176.79 101.433 176.79Z" fill="white"/>
<path d="M117.393 148.131C114.654 148.131 111.919 147.936 109.208 147.55C88.221 144.575 69.2065 130.234 51.0698 103.707L52.0046 103.069C69.9703 129.288 88.7454 143.492 109.39 146.387C144.9 151.426 181.207 121.605 216.227 92.8093C251.486 63.7974 287.941 33.8165 323.941 38.9235C344.928 41.8988 363.942 56.2395 382.079 82.7663L381.144 83.4047C363.179 57.1856 344.404 42.9818 323.759 40.0863C288.249 35.0477 251.942 64.869 216.922 93.6643C184.342 120.476 150.725 148.131 117.393 148.131Z" fill="white"/>
<path d="M133.375 119.473C130.922 119.476 128.472 119.297 126.045 118.937C108.125 116.27 91.8463 103.867 76.3999 81.0336L77.3461 80.4522C92.6443 103.012 108.626 115.255 126.216 117.866C156.106 122.323 186.634 97.6314 216.204 73.7493C245.946 49.719 276.702 24.8679 307.082 29.3935C325.002 32.061 341.28 44.4524 356.727 67.2971L355.781 67.9355C340.482 45.3757 324.5 33.1326 306.911 30.5221C277.021 26.0763 246.493 50.7563 216.922 74.6384C189.575 96.6738 161.372 119.473 133.375 119.473Z" fill="white"/>
<path d="M149.357 90.8371C147.189 90.8406 145.024 90.6729 142.882 90.3355C128.063 87.9758 114.566 77.511 101.752 58.3483L102.699 57.7099C115.329 76.599 128.53 86.9042 143.064 89.2069C167.346 93.0486 192.185 73.4983 216.216 54.5865C240.428 35.5264 265.473 15.8279 290.244 19.738C305.064 22.0977 318.561 32.5625 331.374 51.7252L330.416 52.3635C317.797 33.4745 304.596 23.1692 290.062 20.8665C265.792 17.0249 240.941 36.5751 216.911 55.487C194.762 72.8942 171.962 90.8371 149.357 90.8371Z" fill="white"/>
<path d="M165.362 62.2129C163.452 62.2172 161.544 62.0532 159.663 61.7227C147.853 59.6708 137.183 51.1325 127.048 35.6405L128.006 35.0135C137.958 50.232 148.377 58.5992 159.856 60.6056C178.529 63.8544 197.657 49.4226 216.159 35.4581C234.854 21.3569 254.188 6.76541 273.35 10.1055C285.16 12.1688 295.83 20.6957 305.953 36.1877L305.007 36.8147C295.055 21.6076 284.636 13.229 273.157 11.234C254.473 7.97376 235.356 22.417 216.854 36.3131C200.04 49.1148 182.667 62.2129 165.362 62.2129Z" fill="white"/>
<path d="M259.24 1.17448L258.679 2.16675L360.118 59.535L360.679 58.5427L259.24 1.17448Z" fill="white"/>
<path d="M238.227 3.53468L237.291 4.18445L288.012 77.2987L288.948 76.649L238.227 3.53468Z" fill="white"/>
<path d="M217.139 16.8427H215.999V131.431H217.139V16.8427Z" fill="white"/>
<path d="M194.756 29.5803L144.129 185.672L145.213 186.024L195.84 29.932L194.756 29.5803Z" fill="white"/>
<path d="M173.6 31.6739L72.2842 203.537L73.2662 204.116L174.582 32.2528L173.6 31.6739Z" fill="white"/>
</svg>
