<svg width="340" height="345" viewBox="0 0 340 345" fill="none" xmlns="http://www.w3.org/2000/svg">
<path d="M339.21 326.583C325.63 321.805 313.16 314.738 301.117 307.913C288.561 300.804 275.522 293.453 261.545 288.846C237.003 280.798 203.56 274.129 169.804 270.546C154.533 268.925 140.129 274.385 126.194 279.66C107.965 286.571 89.1107 293.709 68.3225 284.921C51.6862 277.883 42.4581 263.45 33.5427 249.487C24.8549 235.894 15.8685 221.845 0 214.409L0.611419 213.115C16.8496 220.736 25.9498 234.955 34.7371 248.663C43.9511 263.081 52.6389 276.688 68.8628 283.542C89.125 292.073 106.885 285.39 125.739 278.281C139.816 272.935 154.39 267.418 170.003 269.081C203.844 272.664 237.401 279.362 262.029 287.438C276.248 292.088 289.244 299.467 301.842 306.619C313.843 313.416 326.242 320.44 339.707 325.189L339.21 326.583Z" fill="white"/>
<path d="M330.28 295.557C319.801 291.291 311.938 285.717 304.316 280.314C293.965 272.963 284.182 266.01 268.683 262.725C238.902 256.715 208.603 253.644 178.222 253.554C168.084 253.554 158.016 254.18 148.276 254.834C120.137 256.696 93.5473 258.46 65.806 244.454C57.2745 240.188 49.7242 232.197 42.3872 224.547C32.3343 213.997 21.9402 203.105 9.14307 201.541L9.32791 200.119C22.6227 201.74 33.1875 212.831 43.4536 223.552C50.7053 231.159 58.213 239.022 66.4885 243.202C93.9312 257.052 120.322 255.303 148.262 253.44C158.031 252.786 168.169 252.018 178.307 252.16C208.789 252.245 239.188 255.326 269.067 261.36C284.85 264.716 294.747 271.74 305.226 279.191C312.777 284.551 320.583 290.083 330.906 294.263L330.28 295.557Z" fill="white"/>
<path d="M323.739 263.877C319.317 260.948 315.449 258.19 311.71 255.502C296.481 244.625 285.476 236.776 261.417 236.107C250.966 235.823 240.615 237.671 230.604 239.449C221.348 241.098 211.764 242.804 202.095 242.819H201.839C160.376 242.819 113.909 225.343 78.034 210.115C72.331 207.523 66.7684 204.632 61.3692 201.456C47.1502 193.408 30.9263 184.279 15.8683 187.165L15.5981 185.743C31.2391 182.757 47.6194 192.014 62.1086 200.19C67.4586 203.329 72.9742 206.177 78.6312 208.721C146.484 237.543 180.127 241.326 201.811 241.326H202.138C211.679 241.326 221.205 239.619 230.405 237.97C240.472 236.178 250.881 234.316 261.502 234.614C286.002 235.297 297.149 243.259 312.577 254.279C316.302 256.938 320.17 259.697 324.564 262.612L323.739 263.877Z" fill="white"/>
<path d="M224.092 232.595C211.764 232.595 195.427 225.585 182.103 219.798C177.169 217.679 172.506 215.689 168.51 214.224C142.503 204.726 116.44 194.047 91.2437 183.71L80.75 179.444C78.3328 178.449 75.8302 177.368 73.285 176.259C56.3786 168.894 37.2255 160.547 21.0869 171.923L20.2622 170.757C37.0691 158.926 56.6061 167.444 73.8538 174.951C76.3848 176.06 78.8731 177.141 81.2904 178.136L91.784 182.402C116.966 192.739 142.973 203.418 168.993 212.902C173.032 214.324 177.71 216.385 182.658 218.504C196.877 224.618 214.637 232.211 226.836 230.988C235.979 230.05 242.477 225.13 249.416 219.912C255.104 215.646 261.048 211.124 268.683 208.949C291.434 202.422 307.387 215.802 319.943 229.751L318.891 230.704C306.008 216.4 291.05 204.029 269.124 210.314C261.758 212.418 255.943 216.812 250.326 221.049C243.572 226.154 236.577 231.429 227.036 232.425C226.058 232.534 225.076 232.591 224.092 232.595Z" fill="white"/>
<path d="M235.88 217.239C223.253 217.239 206.674 209.731 193.109 203.588C187.905 201.228 182.999 199.01 178.89 197.431C169.036 193.692 158.983 189.824 149.371 186.056C131.142 178.947 112.302 171.709 93.5896 164.984C90.8738 164.002 88.1011 162.95 85.2857 161.884C65.9051 154.504 45.8421 146.883 27.3715 157.49L26.6748 156.253C45.7283 145.304 67.0142 153.409 85.7976 160.519C88.6414 161.585 91.3572 162.623 94.0731 163.604C112.8 170.33 131.654 177.624 149.883 184.691C159.552 188.431 169.548 192.298 179.402 196.066C183.667 197.673 188.53 199.891 193.749 202.266C208.465 208.92 226.779 217.224 239.249 215.575C248.918 214.309 257.734 205.01 266.266 196.01C276.02 185.715 285.248 175.989 295.884 176.956C303.15 177.61 310.103 183.269 317.34 194.261L316.146 195.028C309.221 184.435 302.553 178.989 295.756 178.364C285.803 177.454 276.802 186.895 267.318 196.991C258.616 206.162 249.629 215.66 239.463 216.983C238.276 217.15 237.078 217.235 235.88 217.239Z" fill="white"/>
<path d="M218.732 184.947C194.047 184.947 167.543 173.814 141.821 163.036C106.501 148.234 69.9863 132.92 36.6 145.148L36.1592 143.868C70.0289 131.455 106.814 146.869 142.375 161.784C168.24 172.633 194.986 183.852 219.628 183.582C232.865 183.426 244.937 175.392 256.597 167.628C273.887 156.111 291.775 144.195 312.378 160.32L311.497 161.429C291.704 145.944 275.039 157.049 257.379 168.809C245.535 176.686 233.292 184.848 219.628 185.004L218.732 184.947Z" fill="white"/>
<path d="M175.747 142.361C158.926 142.361 141.778 139.944 125.17 137.598C100.173 134.057 74.3372 130.403 49.397 134.981L49.1411 133.559C74.3088 128.938 100.33 132.607 125.369 136.162C143.172 138.678 161.585 141.266 179.487 140.868C194.019 140.555 208.736 138.565 222.969 136.602C245.847 133.517 269.508 130.332 293.055 133.929L292.841 135.351C269.494 131.782 245.918 134.953 223.168 138.024C208.949 139.944 194.133 141.934 179.516 142.29C178.264 142.347 176.999 142.361 175.747 142.361Z" fill="white"/>
<path d="M64.839 126.507L64.6968 125.085C79.4846 123.549 94.7843 121.943 108.989 115.999C113.464 114.01 117.801 111.726 121.971 109.16C128.284 105.463 134.768 101.638 142.39 99.9884C164.671 95.1682 188.843 99.6187 212.219 103.913C231.699 107.51 251.848 111.207 270.731 109.501L270.859 110.923C251.791 112.643 231.543 108.918 211.963 105.321C188.729 101.055 164.699 96.6327 142.688 101.382C135.323 102.974 129.194 106.572 122.696 110.383C118.472 112.983 114.078 115.296 109.544 117.307C95.1397 123.336 79.7405 124.943 64.839 126.507Z" fill="white"/>
<path d="M81.0203 118.445L80.8354 117.023C95.2251 115.018 100.628 105.235 106.43 94.8837C111.762 85.2574 117.279 75.3041 130.602 72.1332C144.096 68.9482 160.206 71.3085 175.776 73.5551C183.099 74.6358 189.995 75.6453 196.294 76.015C223.765 77.636 247.596 76.015 271.285 71.1379L271.57 72.5598C247.767 77.5365 223.808 79.0864 196.209 77.4654C189.853 77.0957 182.914 76.0435 175.563 74.9913C160.121 72.7304 144.139 70.3985 130.915 73.5694C118.246 76.5554 113.127 85.7977 107.709 95.5947C101.965 105.79 96.1209 116.34 81.0203 118.445Z" fill="white"/>
<path d="M93.0352 107.325L92.0825 106.273C97.6137 101.268 99.4906 95.3813 101.496 89.1391C102.989 84.4469 104.538 79.584 107.795 75.2045C116.468 63.5307 127.332 60.6868 141.721 57.9283C152.57 55.8524 163.206 54.0181 173.487 52.2407C211.594 45.6431 247.582 39.4436 286.101 22.8215L286.67 24.1297C247.994 40.7802 211.921 47.0223 173.728 53.6342C163.462 55.4116 152.826 57.26 141.991 59.3218C127.914 62.0092 117.307 64.7819 108.932 76.0434C105.832 80.2238 104.311 84.973 102.846 89.5515C100.927 95.7226 98.8934 102.064 93.0352 107.325Z" fill="white"/>
<path d="M315.961 344.911C310.928 323.227 310.842 300.989 310.743 279.504C310.743 268.74 310.658 257.592 309.989 246.601C309.52 238.738 309.662 230.178 309.819 221.106C310.132 202.536 310.459 183.34 305.454 168.012C300.576 153.082 289.03 144.65 277.869 136.503C268.185 129.393 258.161 122.113 252.416 110.567C243.046 91.7697 249.402 69.6591 255.53 48.2737C260.18 32.0924 264.986 15.3708 262.981 0.184844L264.403 0C266.451 15.4703 261.559 32.3483 256.924 48.6718C250.852 69.7871 244.582 91.6275 253.696 109.942C259.298 121.16 269.167 128.426 278.722 135.351C290.097 143.627 301.799 152.201 306.819 167.571C311.838 182.942 311.568 202.451 311.255 221.135C311.098 230.178 310.956 238.709 311.425 246.516C312.094 257.55 312.136 268.712 312.179 279.504C312.279 300.918 312.364 323.071 317.369 344.613L315.961 344.911Z" fill="white"/>
<path d="M286.329 332.512L284.907 332.342C286.243 321.436 288.064 311.297 289.812 301.501C293.652 279.959 297.292 259.611 295.187 235.382C294.633 228.884 294.519 221.845 294.391 214.409C294.107 196.692 293.822 178.378 287.481 164.13C281.58 150.864 269.223 142.802 257.265 134.967C246.231 127.758 234.813 120.293 228.144 108.69C217.338 89.8785 224.874 66.7726 232.154 44.4344C235.695 33.5995 239.022 23.376 240.117 14.0768L241.539 14.2332C240.43 23.6746 237.074 33.9692 233.519 44.8752C226.339 66.9147 218.902 89.7079 229.396 107.994C235.88 119.283 247.155 126.663 258.061 133.787C270.19 141.707 282.731 149.897 288.803 163.562C295.244 178.065 295.543 196.521 295.827 214.38C295.955 221.803 296.069 228.799 296.623 235.254C298.742 259.682 295.088 280.115 291.22 301.757C289.471 311.539 287.665 321.606 286.329 332.512Z" fill="white"/>
<path d="M258.957 319.417L257.607 318.962C258.701 315.706 259.867 312.435 261.09 309.008C266.337 294.292 271.74 279.063 271.698 264.147C271.509 258.954 270.867 253.787 269.778 248.705C268.672 243.496 268.021 238.201 267.83 232.88C267.83 225.614 269.181 217.921 270.546 210.485C272.793 198.171 275.124 185.431 271.029 173.998C265.256 157.817 250.653 147.452 235.197 136.474C220.85 126.279 206.02 115.743 199.124 100.159C189.91 79.3423 198.541 61.8529 207.655 43.2828C210.257 38.0076 212.945 32.5617 215.22 26.9878L216.542 27.5281C214.238 33.2157 211.537 38.619 208.935 43.9084C199.948 62.123 191.46 79.3423 200.403 99.5334C207.143 114.762 221.817 125.128 235.951 135.266C250.909 145.887 266.366 156.879 272.295 173.472C276.561 185.274 274.158 198.199 271.868 210.698C270.517 218.078 269.124 225.699 269.181 232.837C269.371 238.073 270.018 243.283 271.115 248.407C272.208 253.555 272.855 258.788 273.048 264.048C273.048 279.219 267.645 294.562 262.37 309.392C261.204 312.904 260.052 316.16 258.957 319.417Z" fill="white"/>
<path d="M227.619 307.074L226.197 306.804C227.547 298.336 228.307 289.784 228.472 281.21C229.183 264.858 229.894 247.952 238.34 234.529C241.355 229.912 244.721 225.534 248.407 221.433C256.355 212.205 262.626 204.911 258.147 189.682C252.033 168.88 232.026 153.594 212.646 138.821C195.583 125.796 177.951 112.33 169.434 94.969C159.182 74.0244 172.278 58.6109 184.99 43.6951C186.81 41.5623 188.616 39.4294 190.365 37.2823L191.474 38.1781C189.711 40.3252 187.89 42.4439 186.07 44.6194C173.686 59.1797 160.874 74.2376 170.714 94.386C179.075 111.449 196.578 124.815 213.513 137.74C233.093 152.613 253.298 168.041 259.54 189.369C264.247 205.337 257.749 212.888 249.516 222.443C245.868 226.492 242.54 230.818 239.562 235.382C231.33 248.478 230.605 265.242 229.908 281.352C229.738 289.969 228.973 298.563 227.619 307.074Z" fill="white"/>
<path d="M188.729 296.552H187.307C187.307 292.841 187.307 289.443 187.307 286.101C187.094 265.484 186.966 253.028 210.683 241.582C214.224 239.861 218.035 238.325 221.717 236.847C232.581 232.481 242.847 228.315 246.188 220.139C248.151 215.319 247.61 209.461 244.368 202.209C234.415 179.459 213.797 161.841 193.905 144.807C177.397 130.673 160.334 116.042 149.371 98.5522C132.152 71.0668 144.707 61.5827 165.51 45.9417L167.642 44.335L168.51 45.4725L166.334 47.1788C145.503 62.8197 134.029 71.4649 150.551 97.8412C161.386 115.146 178.378 129.692 194.801 143.769C214.821 160.903 235.51 178.634 245.648 201.683C248.99 209.304 249.587 215.532 247.468 220.722C243.899 229.481 233.363 233.718 222.215 238.212C218.547 239.634 214.764 241.212 211.266 242.904C188.36 253.966 188.516 266.067 188.701 286.13C188.743 289.4 188.786 292.827 188.729 296.552Z" fill="white"/>
<path d="M151.988 290.41L150.566 290.324C152.329 260.777 162.581 252.815 187.322 240.487C190.166 239.065 193.109 237.728 195.939 236.434C206.873 231.429 217.196 226.708 220.111 218.362C221.888 213.286 220.879 207.115 217.011 199.493C211.324 188.203 196.451 173.529 180.753 157.988C153.239 130.744 122.071 99.8746 125.881 74.5931C127.46 64.1564 135.038 55.3406 148.404 48.359L149.073 49.6245C135.934 56.4781 128.81 64.7109 127.289 74.8064C123.578 99.3627 154.49 129.976 181.748 156.978C197.531 172.619 212.433 187.35 218.277 198.853C222.329 206.83 223.367 213.371 221.462 218.831C218.348 227.746 207.755 232.595 196.536 237.728C193.692 239.008 190.848 240.345 188.004 241.766C163.235 254.08 153.722 261.474 151.988 290.41Z" fill="white"/>
<path d="M108.676 306.961L107.254 306.705C112.052 279.632 122.73 253.941 138.536 231.443C141.642 227.204 144.965 223.127 148.49 219.229C157.96 208.252 167.756 196.905 165.552 181.691C163.135 164.898 151.333 148.817 139.816 133.275C120.222 106.714 100.003 79.2428 130.488 49.6814L131.469 50.7052C101.851 79.4134 120.848 105.164 140.954 132.436C152.528 148.077 164.486 164.344 166.96 181.478C169.264 197.346 159.239 208.949 149.556 220.168C146.101 224.038 142.845 228.081 139.802 232.282C124.083 254.595 113.457 280.089 108.676 306.961Z" fill="white"/>
<path d="M67.4409 316.658L66.019 316.516C66.9148 307.885 67.6542 299.041 68.3652 290.495C70.3985 266.223 72.5029 241.127 78.3185 217.139C82.5842 199.266 89.6937 189.042 97.9834 177.212C101.467 172.207 105.093 167.031 108.705 160.888C118.459 144.437 115.743 126.606 112.871 107.723C110.112 89.6937 107.283 71.0383 115.715 52.8806L117.009 53.4778C108.776 71.2516 111.591 89.6795 114.307 107.51C117.222 126.649 119.995 144.721 109.956 161.543C106.287 167.728 102.676 172.918 99.1779 177.951C91.0304 189.668 83.9919 199.792 79.7262 217.395C73.9533 241.283 71.8489 266.323 69.7729 290.538C69.005 299.169 68.2657 308.013 67.4409 316.658Z" fill="white"/>
<path d="M39.6568 283.485L38.2349 283.386C38.9459 273.887 38.6188 262.256 38.2349 249.942C37.1685 212.134 35.8319 165.069 64.5686 147.025C67.5972 145.105 70.6543 143.428 73.5977 141.807C82.6694 136.801 91.2293 132.081 97.0306 121.9C104.254 109.345 104.595 91.5849 104.908 75.9298C105.022 70.4839 105.121 65.3508 105.491 60.6158L106.913 60.7296C106.557 65.4219 106.444 70.5407 106.344 75.9582C106.031 91.784 105.676 109.728 98.2819 122.611C92.2815 133.062 83.551 137.868 74.3086 142.973C71.3653 144.594 68.3366 146.271 65.3364 148.148C37.2964 165.766 38.6046 212.376 39.671 249.829C40.0407 262.256 40.4246 273.916 39.6568 283.485Z" fill="white"/>
<path d="M18.9683 244.07L17.5464 243.7C20.2907 233.349 21.3286 222.002 22.4377 210.001C24.599 186.426 26.8456 162.04 42.9985 145.731C48.7998 139.873 56.4923 136.588 63.9289 133.431C70.5692 130.588 77.437 127.744 82.7265 122.938C99.4196 108.008 99.5192 95.6515 99.704 73.1711H101.126C100.955 95.2533 100.842 108.591 83.6792 123.947C78.2048 128.839 71.2375 131.81 64.4834 134.683C57.1749 137.797 49.6103 141.01 44.008 146.669C28.2107 162.623 25.9925 186.753 23.8454 210.072C22.8501 221.661 21.7552 233.59 18.9683 244.07Z" fill="white"/>
</svg>
