<svg width="318" height="379" viewBox="0 0 318 379" fill="none" xmlns="http://www.w3.org/2000/svg">
<path d="M238.582 378.247C234.36 378.249 230.174 377.465 226.239 375.935C215.367 371.752 206.277 364.547 197.497 357.575C186.109 348.537 174.347 339.215 158.762 336.8C145.115 334.67 130.46 335.509 116.283 336.219C106.066 336.957 95.8167 337.156 85.5788 336.813C68.3416 335.896 52.6668 329.892 37.4956 324.095C25.6943 319.576 13.4927 314.902 0.529375 312.591L0 312.5V311.958C0.0645585 259.511 0 206.185 0 154.616C0 118.722 0 82.8227 0 46.9196V46.4676L0.413174 46.3127C11.5301 42.2068 21.7562 33.1557 31.6595 24.3628C46.5467 11.18 61.9632 -2.44187 80.7885 0.372878C96.1922 2.69698 108.445 13.1296 120.285 23.2266C131.906 33.104 143.862 43.3172 159.021 46.274C171.777 48.7659 186.225 47.8879 200.196 47.0228C208.55 46.5064 217.188 45.977 225.141 46.2223C244.651 46.8292 261.888 53.0397 278.544 59.0436C290.823 63.4594 303.515 68.0818 317.279 70.4705L317.809 70.5738V71.1032C317.809 104.596 317.809 138.089 317.809 171.582C317.809 225.514 317.809 281.331 317.809 336.142V336.619L317.357 336.761C307.027 340.041 296.698 347.607 285.813 355.625C270.539 366.794 254.903 378.247 238.582 378.247ZM138.568 334.127C145.403 334.061 152.232 334.528 158.995 335.522C174.876 338.001 186.781 347.439 198.298 356.568C207 363.476 216.013 370.616 226.704 374.735C246.923 382.482 266.291 368.279 285.013 354.605C295.885 346.652 306.149 339.111 316.492 335.703C316.556 280.996 316.492 225.385 316.492 171.608C316.492 138.296 316.492 104.983 316.492 71.6713C302.87 69.1922 290.294 64.6602 278.118 60.2832C260.791 54.0339 244.419 48.1333 225.116 47.5393C217.226 47.294 208.989 47.8105 200.286 48.3398C186.238 49.2049 171.7 50.0958 158.788 47.5651C143.307 44.5051 131.196 34.1757 119.472 24.2337C107.232 13.8011 95.6628 3.94942 80.6207 1.67696C62.3764 -1.06032 47.2052 12.3678 32.5375 25.357C22.6729 34.0853 12.4856 43.1106 1.31699 47.3069C1.31699 83.0465 1.31699 118.795 1.31699 154.551C1.31699 205.94 1.31699 259.136 1.31699 311.351C14.2287 313.714 26.2882 318.349 37.9862 322.817C53.0542 328.588 68.6386 334.553 85.6821 335.457C95.8682 335.797 106.065 335.604 116.231 334.876C123.668 334.541 131.118 334.127 138.555 334.127H138.568Z" fill="white"/>
<path d="M64.8814 305.205C50.5107 305.205 39.6132 299.55 28.1089 293.585C19.6259 289.182 10.8718 284.637 0.516602 282.519L0.774832 281.228C11.2979 283.385 20.1424 287.968 28.7028 292.423C40.4396 298.517 51.5178 304.289 66.2759 303.888C83.2935 303.449 100.518 299.318 117.174 295.315C130.796 292.048 144.869 288.665 158.827 287.297C214.709 281.822 267.673 284.275 317.124 287.297L317.047 288.588C267.647 285.605 214.748 283.152 158.956 288.588C145.089 289.944 131.054 293.314 117.484 296.567C100.698 300.583 83.4614 304.741 66.3017 305.18L64.8814 305.205Z" fill="white"/>
<path d="M68.0189 266.806C53.6482 266.806 41.976 260.195 29.6712 253.236C20.5555 248.071 11.13 242.739 0.490723 240.324L0.774782 239.033C11.5948 241.447 21.1107 246.78 30.3167 252.035C43.6158 259.575 56.1402 266.677 72.1507 265.257C88.1612 263.836 103.901 256.593 119.02 249.62C131.841 243.707 145.089 237.6 158.762 234.875C165.664 233.381 172.475 231.497 179.163 229.233C186.111 226.875 193.195 224.939 200.377 223.436C224.199 218.942 251.042 225.192 277.008 231.183C291.211 234.475 304.523 237.638 317.15 238.93L317.008 240.221C304.303 238.826 290.901 235.715 276.711 232.474C250.887 226.457 224.173 220.246 200.622 224.727C193.489 226.224 186.453 228.147 179.55 230.485C172.82 232.766 165.966 234.663 159.021 236.166C145.489 238.852 132.306 244.934 119.562 250.821C104.34 257.845 88.5743 265.102 72.2669 266.561C70.8208 266.741 69.4392 266.806 68.0189 266.806Z" fill="white"/>
<path d="M98.1807 230.434C88.0451 230.434 77.7673 225.346 68.4838 220.75C66.8699 219.949 65.2947 219.162 63.7452 218.426C59.7168 216.502 55.8304 214.552 52.0343 212.745C34.7585 204.275 19.8326 196.954 0.54248 192.189L0.852359 190.898C20.2199 195.701 35.9851 203.397 52.6025 211.557C56.3985 213.416 60.272 215.314 64.3005 217.238C65.8499 217.974 67.438 218.761 69.0649 219.562C80.8274 225.385 94.1523 231.983 106.509 227.787C118.413 223.745 124.224 213.351 130.37 202.364C136.968 190.575 143.785 178.399 158.775 175.107C171.519 172.305 186.497 177.599 200.984 182.712C209.66 185.785 217.859 188.677 225.219 189.723C246.226 192.719 268.602 192.06 290.242 191.427C299.126 191.156 308.319 190.885 317.137 190.885V192.176C308.332 192.176 299.151 192.447 290.281 192.719C268.576 193.351 246.149 194.01 225.038 191.001C217.549 189.943 209.299 187.024 200.506 183.926C186.2 178.877 171.39 173.596 159.021 176.372C144.585 179.536 137.91 191.466 131.467 202.996C125.463 213.713 119.266 224.804 106.935 229C104.117 229.961 101.158 230.445 98.1807 230.434Z" fill="white"/>
<path d="M86.87 181.873C70.0848 181.873 52.654 171.466 35.7526 161.356C23.3961 153.971 11.7368 146.998 0.490723 143.977L0.82643 142.686C12.2404 145.759 23.9771 152.783 36.4111 160.22C55.6624 171.724 75.5593 183.629 94.2038 179.82C107.116 177.237 116.825 168.509 127.155 159.329C136.58 150.962 146.315 142.298 158.698 138.528C166.057 136.294 173.533 133.725 181.461 131.014C196.955 125.72 212.901 120.245 227.943 117.314C248.447 113.324 266.859 121.911 284.651 130.226C295.149 135.119 305.995 140.181 317.241 142.673L316.957 143.964C305.581 141.382 294.658 136.346 284.109 131.427C265.684 122.84 248.292 114.732 228.201 118.644C213.224 121.549 197.213 127.011 181.874 132.292C173.934 135.003 166.38 137.573 159.059 139.819C146.948 143.499 137.316 152.06 128.071 160.349C118.065 169.245 107.722 178.425 94.5008 181.137C91.9879 181.635 89.4317 181.881 86.87 181.873Z" fill="white"/>
<path d="M81.4343 111.943C64.9719 111.943 48.1609 107.437 31.8276 103.06C21.5413 100.105 11.1072 97.6918 0.568359 95.8292L0.774941 94.538C11.3574 96.4063 21.8346 98.8285 32.1633 101.794C50.4075 106.688 69.2715 111.736 87.4512 110.419C102.325 109.335 117.858 105.1 132.887 100.994C141.448 98.6569 150.292 96.2424 158.711 94.538C171.907 91.8137 184.069 86.4037 195.832 81.1873C206.071 76.6424 216.659 71.9296 227.918 68.9858C248.731 63.5629 267.066 74.4732 284.794 85.0221C295.265 91.2456 306.085 97.6885 317.228 100.607L316.892 101.898C305.581 98.928 294.671 92.4463 284.135 86.1713C266.627 75.7515 248.538 64.9832 228.24 70.2769C217.085 73.195 206.549 77.8819 196.361 82.401C184.534 87.6561 172.307 93.0919 158.917 95.8421C150.486 97.5723 141.667 99.9868 133.094 102.298C118.013 106.417 102.403 110.678 87.4254 111.775C85.5144 111.866 83.4744 111.943 81.4343 111.943Z" fill="white"/>
<path d="M264.819 367.905C261.1 346.807 255.703 327.129 249.996 306.316C248.279 300.053 246.497 293.585 244.832 287.129C244.134 284.547 243.282 281.641 242.378 278.633C239.06 267.593 235.303 255.069 236.697 244.766C238.156 234.036 244.225 225.708 250.087 217.651C255.949 209.594 261.914 201.434 263.437 190.833C267.504 162.596 266.175 133.777 264.896 105.913C264.096 88.5211 263.257 70.548 263.76 52.9752H265.051C264.548 70.4835 265.374 88.4437 266.175 105.797C267.466 133.725 268.757 162.608 264.716 191.014C263.153 201.938 257.046 210.382 251.132 218.413C245.219 226.444 239.383 234.514 237.975 244.921C236.62 254.953 240.338 267.335 243.618 278.246C244.522 281.267 245.374 284.133 246.084 286.78C247.788 293.236 249.557 299.692 251.249 305.954C256.969 326.807 262.379 346.51 266.11 367.672L264.819 367.905Z" fill="white"/>
<path d="M212.062 367.453C208.395 345.968 202.921 325.967 197.123 304.792C195.875 300.196 194.618 295.573 193.353 290.925C192.591 288.097 191.752 285.231 190.848 282.197C187.078 269.44 182.804 254.966 185.283 242.17C187.272 231.944 192.759 223.371 198.066 215.056C203.372 206.741 209.105 197.819 210.977 187.257C216.375 157.031 214.528 125.41 212.759 94.8221C211.843 79.0182 210.887 62.672 210.977 46.881H212.269C212.178 62.6462 213.121 78.9666 214.05 94.7447C215.832 125.41 217.666 157.108 212.256 187.477C210.319 198.296 204.638 207.167 199.137 215.753C193.895 223.939 188.472 232.409 186.549 242.39C184.134 254.966 188.356 269.169 192.101 281.835C193.004 284.869 193.857 287.749 194.618 290.589C195.875 295.238 197.132 299.856 198.389 304.444C204.186 325.658 209.673 345.684 213.353 367.233L212.062 367.453Z" fill="white"/>
<path d="M159.537 46.9325H158.246V336.155H159.537V46.9325Z" fill="white"/>
<path d="M105.476 336.193C105.205 326.148 100.466 317.613 95.8824 309.363C90.2658 299.253 84.4684 288.807 87.1153 275.792C89.4265 264.391 96.9411 255.547 104.21 246.999C111.957 237.897 119.95 228.484 121.602 216.011C123.087 204.727 119.188 192.486 115.405 180.646C112.972 173.73 111.09 166.632 109.775 159.419C104.494 124.17 103.642 86.7265 102.803 50.522C102.519 37.7653 102.209 24.5824 101.718 11.8773H103.01C103.5 24.5953 103.81 37.7911 104.094 50.6124C104.933 86.7652 105.786 124.209 111.054 159.342C112.364 166.483 114.229 173.511 116.631 180.362C120.505 192.331 124.378 204.714 122.881 216.282C121.176 229.194 113.055 238.71 105.192 247.942C98.0257 256.373 90.6273 265.089 88.4065 276.167C85.8242 288.743 91.2858 298.517 97.0315 308.872C101.693 317.265 106.509 325.941 106.793 336.297L105.476 336.193Z" fill="white"/>
<path d="M54.0356 330.06H52.7445C52.809 320.312 47.8251 312.965 43.009 305.864C37.2891 297.42 31.3885 288.704 34.1129 276.167C36.5015 265.166 44.1065 257.135 51.4533 249.375C59.2003 241.137 67.2959 232.59 69.1036 220.569C70.8725 208.716 66.7795 195.417 62.8285 182.557C60.4011 174.629 58.1028 167.153 57.1086 160.052C52.0343 123.899 51.0401 85.8743 50.0717 49.076C49.7489 36.642 49.4132 23.7948 48.9226 11.3738H50.2138C50.7044 23.7948 51.0401 36.642 51.3629 49.076C52.3313 85.8485 53.3255 123.873 58.3869 159.91C59.3682 166.908 61.6535 174.345 64.068 182.208C68.0577 195.211 72.1895 208.665 70.3818 220.802C68.5096 233.261 60.3236 241.925 52.3829 250.292C45.1653 257.936 37.6894 265.786 35.3653 276.477C32.783 288.511 38.2446 296.619 44.0678 305.218C49.0001 312.41 54.1002 319.925 54.0356 330.06Z" fill="white"/>
</svg>
