<svg width="413" height="398" viewBox="0 0 413 398" fill="none" xmlns="http://www.w3.org/2000/svg">
<path d="M372.865 397.403L371.406 395.346C363.934 384.474 362.168 372.698 360.446 361.315C358.783 350.195 357.192 339.688 350.786 329.765C344.949 323.621 337.769 321.287 330.166 318.806C327.247 317.843 324.183 316.85 321.191 315.61C307.153 309.773 296.675 302.476 285.249 293.239C271.094 279.58 258.208 264.374 245.746 249.65C238.449 241.054 231.021 232.269 223.287 223.733C222.704 234.069 221.16 244.328 218.676 254.378C208.723 276.661 206.257 301.571 203.893 325.65C203.47 330.028 203.032 334.406 202.565 338.638L202.434 339.936L201.398 339.134C179.639 322.439 161.267 313.056 139.961 307.773C137.962 307.35 135.919 306.971 133.891 306.577C118.043 303.542 103.07 300.667 94.4895 284.921C84.2744 267.336 82.3627 246.089 80.5678 225.542C80.2467 222.011 79.9403 218.523 79.6046 215.108C79.3566 213.138 79.1085 211.139 78.875 209.125C76.6569 190.738 74.3658 171.723 64.1799 155.817C57.9633 148.52 50.1706 142.143 42.6407 136.029C39.7221 133.65 36.6721 131.199 33.7973 128.732C22.527 118.921 12.0687 108.213 2.52458 96.7153L0 93.6946L3.44394 95.6063C25.1729 107.704 47.8941 116.576 77.0801 124.384C102.019 132.527 118.743 141.895 134.781 156.692C146.922 166.616 160.537 175.094 173.7 183.281C186.06 190.986 198.858 198.939 210.518 208.162C214.458 212.073 218.296 216.1 222.061 220.186C222.587 211.051 222.674 201.814 222.776 192.723C222.893 181.851 223.024 170.614 223.871 159.961C224.163 158.341 224.454 156.795 224.732 155.219C228.263 135.649 232.262 113.483 256.209 108.433C276.639 103.107 289.933 94.3659 298.061 80.9257C305.562 66.4203 312.538 51.3166 319.294 36.709C321.337 32.2728 323.39 27.8414 325.452 23.4148C334.354 9.24507 343.519 -5.31873 365.16 1.91938L365.539 2.05073L365.627 2.44473C366.459 6.00541 367.32 9.3618 368.137 12.6598C371.216 24.7282 373.887 35.1476 372.938 47.7997C371.698 58.4671 375.258 72.2137 378.41 84.2821C379.505 88.4995 380.541 92.498 381.329 95.9565L394.973 161.216C397.571 173.868 399.818 186.798 401.993 199.304C403.773 209.519 405.612 220.172 407.64 230.562L407.786 231.335C413.433 259.894 416.264 274.224 406.618 302.651C403.496 309.729 399.804 316.952 395.907 324.541C384.7 346.43 372.004 371.326 372.792 394.777L372.865 397.403ZM223.477 221.719C231.576 230.591 239.339 239.756 246.928 248.701C259.361 263.396 272.217 278.588 286.329 292.144C297.609 301.265 307.985 308.532 321.863 314.267C324.781 315.479 327.816 316.471 330.735 317.419C338.528 319.959 345.883 322.352 352.041 328.875C358.71 339.163 360.388 350.312 362.008 361.096C363.584 371.589 365.218 382.402 371.347 392.413C371.508 369.356 383.781 345.321 394.696 324.015C398.592 316.383 402.284 309.174 405.364 302.199C414.864 274.21 412.047 259.996 406.458 231.7L406.312 230.912C404.269 220.508 402.43 209.898 400.65 199.625C398.49 187.133 396.272 174.219 393.645 161.596L379.87 96.3213C379.14 92.8482 378.104 88.8643 376.951 84.6469C373.77 72.4034 370.18 58.5401 371.435 47.61C372.369 35.2352 369.728 24.9179 366.692 12.9809C365.89 9.84336 365.058 6.61833 364.255 3.18898C343.985 -3.39245 335.186 10.6022 326.693 24.1299C324.664 28.5078 322.621 32.8857 320.564 37.2636C313.807 51.8565 306.817 67.0041 299.302 81.5824C290.94 95.4166 277.412 104.362 256.501 109.791C233.488 114.65 229.737 135.372 226.118 155.423C225.841 156.984 225.564 158.546 225.272 160.093C224.44 170.629 224.309 181.836 224.192 192.679C224.177 202.339 224.075 212.073 223.477 221.719ZM6.20201 98.7875C14.9793 109.089 24.521 118.713 34.7459 127.579C37.6645 130.046 40.583 132.497 43.5016 134.876C51.09 141.034 58.941 147.397 65.3035 154.941C75.7083 171.198 78.0286 190.388 80.2613 208.935C80.5094 210.949 80.7429 212.934 80.991 214.933C81.3412 218.362 81.6477 221.865 81.9541 225.396C83.7491 245.826 85.5878 266.869 95.7007 284.177C104.019 299.353 118.67 302.155 134.168 305.132C136.211 305.512 138.254 305.906 140.282 306.329C161.486 311.597 179.771 320.849 201.252 337.178C201.675 333.311 202.054 329.4 202.434 325.504C204.827 301.309 207.293 276.282 217.304 253.896C219.866 243.508 221.435 232.9 221.988 222.215C217.946 217.837 213.816 213.459 209.599 209.242C198.056 200.136 185.302 192.197 172.97 184.521C159.764 176.305 146.119 167.798 133.876 157.787C117.955 143.121 101.407 133.854 76.6861 125.785C48.9302 118.386 26.997 109.995 6.20201 98.7875Z" fill="white"/>
<path d="M352.143 329.459L350.684 329.283C352.683 313.698 353.5 307.263 350.304 290.466C347.269 274.312 346.787 257.574 346.321 241.405C346.248 238.734 346.175 236.064 346.087 233.408C345.999 229.818 345.912 226.213 345.839 222.623C345.445 205.199 345.036 187.162 343.738 169.49C341.913 153.438 339.856 137.138 337.74 120.516L331.567 72.1845C329.305 55.0231 327.335 39.6276 325.555 25.1513L327.014 24.9762C328.809 39.4524 330.764 54.8334 333.026 71.9948L339.199 120.341C341.315 136.963 343.373 153.219 345.211 169.359C346.51 187.104 346.919 205.141 347.313 222.594C347.381 226.184 347.464 229.774 347.561 233.364C347.648 236.02 347.721 238.69 347.794 241.361C348.261 257.486 348.743 274.151 351.749 290.203C355.062 307.219 354.186 313.727 352.143 329.459Z" fill="white"/>
<path d="M285.016 292.699C284.811 286.628 285.016 282.177 285.337 276.53C285.585 271.685 285.862 266.198 285.964 258.172C286.081 246.002 286.095 233.627 286.095 221.69V207.17C286.198 193.014 286.3 178.363 286.913 163.96V163.843C287.598 148.083 287.847 142.771 289.175 131.841C290.001 124.976 291.175 118.157 292.691 111.411C292.998 109.951 293.319 108.492 293.669 106.77L294.151 104.45C295.802 97.0822 297.039 89.6282 297.857 82.1224L299.317 82.283C298.494 89.8373 297.252 97.34 295.595 104.756L295.231 106.93C294.88 108.623 294.559 110.156 294.253 111.586C292.742 118.303 291.573 125.092 290.751 131.928C289.423 142.8 289.189 148.097 288.503 163.828V163.989C287.89 178.363 287.788 192.985 287.686 207.14V221.66C287.686 233.627 287.686 246.002 287.555 258.143C287.453 266.198 287.175 271.7 286.913 276.559C286.635 282.177 286.402 286.599 286.606 292.611L285.016 292.699Z" fill="white"/>
<path d="M210.839 208.804L209.38 208.716C209.657 204.587 209.861 201.201 210.051 198.02C210.387 192.533 210.679 187.805 211.219 180.946C211.764 172.317 212.777 163.723 214.254 155.204C215.28 147.904 217.171 140.752 219.887 133.898C222.805 126.383 224.673 123.289 228.891 118.794C233.108 114.3 236.027 112.957 241.616 111.337C245.71 110.175 249.886 109.322 254.107 108.784L255.902 108.521L256.121 109.98L254.326 110.243C250.166 110.761 246.053 111.605 242.024 112.768C236.596 114.329 234.144 115.336 229.956 119.816C225.768 124.296 224.119 127.112 221.2 134.409C218.521 141.178 216.659 148.242 215.655 155.452C214.175 163.922 213.166 172.467 212.634 181.048C212.094 187.878 211.802 192.606 211.467 198.093C211.321 201.289 211.116 204.703 210.839 208.804Z" fill="white"/>
<path d="M223.725 160.268C217.571 155.901 211.07 152.046 204.287 148.739C196.597 144.96 192.978 143.719 186.644 142.654C181.686 141.684 176.586 141.684 171.628 142.654C166.996 143.285 162.474 144.552 158.188 146.419C154.187 148.022 150.288 149.869 146.514 151.95L146.12 152.154L142.749 153.934C140.107 155.394 138.006 156.459 134.752 157.991L134.139 156.663C137.364 155.204 139.436 154.051 142.063 152.65L145.434 150.87L145.842 150.651C149.675 148.54 153.638 146.673 157.706 145.062C162.095 143.153 166.726 141.857 171.467 141.209C176.586 140.242 181.842 140.266 186.951 141.282C193.445 142.377 197.166 143.646 204.988 147.499C211.833 150.848 218.392 154.753 224.601 159.173L223.725 160.268Z" fill="white"/>
<path d="M216.866 254.1C208.563 246.921 201.835 242.718 192.539 236.895L185.243 232.284L183.988 231.496C170.854 223.163 163.689 218.567 152.905 209.534C142.121 200.5 137.714 195.699 131.016 185.513C127.419 180.073 124.261 174.353 121.574 168.411C120.436 166.076 119.283 163.653 117.809 160.764C112.891 151.132 109.403 144.901 100.005 138.349C93.1689 133.513 85.7878 129.496 78.0138 126.383L76.6421 125.77L77.2404 124.442L78.6121 125.04C86.4713 128.189 93.9313 132.255 100.837 137.152C110.323 143.763 114.073 150.286 119.108 160.107C120.567 163.026 121.749 165.434 122.887 167.783C125.565 173.658 128.692 179.317 132.241 184.711C138.867 194.751 143.113 199.406 153.868 208.41C164.623 217.414 171.759 221.967 184.805 230.299L186.046 231.102C188.687 232.78 191.109 234.283 193.342 235.699C202.682 241.536 209.394 245.782 217.829 253.05L216.866 254.1Z" fill="white"/>
<path d="M141.887 305.891L140.676 305.059C143.332 301.168 145.969 297.349 148.586 293.604C162.376 273.684 175.422 254.874 184.937 231.394C189.607 216.509 192.569 201.07 195.429 186.156C197.837 173.576 200.332 160.574 203.849 147.907C210.723 130.732 218.442 111.337 241.514 111.337H241.82C244.739 111.337 247.803 111.337 250.809 111.337C265.329 111.337 280.346 111.44 294.194 106.157C309.984 99.4296 320.681 85.7998 331.027 72.5931L331.757 71.6738C333.654 69.4264 335.536 66.7851 337.594 63.9979C345.926 52.3235 356.287 37.9202 372.617 47.0992L371.902 48.3834C356.667 39.8319 347.094 53.1261 338.732 64.8443C336.718 67.6607 334.807 70.3312 332.895 72.5931L332.18 73.4979C321.717 86.8213 310.903 100.612 294.749 107.5C280.637 112.855 265.461 112.768 250.795 112.768C247.803 112.768 244.812 112.768 241.82 112.768H241.543C219.464 112.768 211.905 131.665 205.221 148.345C201.748 160.881 199.267 173.854 196.859 186.404C193.941 201.376 191.022 216.874 186.308 231.89C176.706 255.574 163.631 274.443 149.826 294.435C147.19 298.191 144.543 302.009 141.887 305.891Z" fill="white"/>
<path d="M97.3061 283.505L96.2554 282.484C117.781 260.069 136.725 235.311 152.73 208.673C159.37 196.502 165.455 183.792 171.351 171.504C176.05 161.683 180.924 151.527 186.061 141.676C193.78 125.624 210.431 116.766 229.489 118.649C242.054 119.874 254.545 123.026 266.643 125.945C274.319 127.842 282.257 129.783 290.108 131.242C306.969 133.976 324.225 129.908 338.09 119.933L380.249 95.65L380.979 96.905L338.864 121.056C331.854 126.104 323.918 129.719 315.509 131.695C307.1 133.671 298.384 133.968 289.86 132.57C281.951 131.111 273.998 129.155 266.293 127.273C254.253 124.354 241.806 121.246 229.343 119.977C210.912 118.167 194.831 126.675 187.359 142.202C182.223 152.066 177.363 162.209 172.664 172.03C166.827 184.332 160.669 197.042 154 209.286C137.927 236.061 118.911 260.956 97.3061 283.505Z" fill="white"/>
<path d="M81.8226 215.356L81.5161 213.897C102.486 209.519 116.933 197.509 131.132 184.55C135.817 179.516 140.486 174.204 144.996 169.053C153.241 159.669 161.763 149.965 171 141.326C185.973 126.543 201.062 128.732 220.762 133.446C234.476 138.596 247.919 144.44 261.039 150.957C269.795 155.146 278.901 159.465 288.007 163.303C308.437 170.468 322.855 173.285 344.394 168.732C362.548 165.667 378.819 163.055 394.185 160.72L394.404 162.179C379.052 164.5 362.781 167.126 344.657 170.176C322.942 174.773 307.809 171.796 287.496 164.675C278.302 160.822 269.211 156.488 260.411 152.285C247.467 146.127 234.144 139.75 220.354 134.861C201.193 130.279 186.454 128.119 172.007 142.391C162.799 151.03 154.306 160.705 146.09 170.118C141.566 175.269 136.896 180.596 132.154 185.689C117.765 198.764 103.143 210.891 81.8226 215.356Z" fill="white"/>
<path d="M357.046 234.342C353.646 234.342 350.231 234.269 346.831 234.108C321.716 232.97 304.628 222.828 286.46 210.759C277.704 204.236 269.153 197.261 260.849 190.519C246.11 178.582 230.89 166.236 214.59 156.021C196.83 146.74 179.946 138.013 158.056 146.331C154.963 147.659 151.811 149.25 148.483 150.782C138.794 155.452 128.754 160.282 118.422 161.143H118.261C114 160.589 109.71 159.932 105.58 159.305C92.2566 157.291 79.6921 155.379 66.252 156.036V154.577C79.838 153.905 92.5193 155.832 105.872 157.86C109.972 158.487 114.219 159.13 118.451 159.684C128.491 158.823 138.37 154.066 147.929 149.469C151.271 147.849 154.423 146.331 157.589 144.974C180.106 136.408 197.209 145.281 215.334 154.679C231.751 164.894 247.015 177.342 261.783 189.308C270.072 196.035 278.653 202.996 287.321 209.475C305.912 221.894 322.14 231.511 346.904 232.634C362.723 233.393 378.76 232.167 394.273 230.971C398.476 230.65 402.678 230.314 406.881 230.037L406.983 231.496C402.78 231.773 398.592 232.094 394.39 232.43C382.146 233.379 369.654 234.342 357.046 234.342Z" fill="white"/>
<path d="M405.48 303.06C391.398 291.955 373.872 291.575 356.915 291.21L351.078 291.064C324.037 292.144 304.22 275.684 286.256 258.712C278.332 250.452 270.496 241.974 262.907 233.772C246.636 216.159 229.825 197.947 211.496 181.544C191.066 166.484 171.978 155.7 145.594 152.154C131.001 151.41 117.693 145.791 104.734 140.377L100.079 138.422C84.2308 134.876 67.9743 132.964 52.1409 131.126C46.7561 130.498 41.3421 129.856 35.8989 129.155L36.0886 127.696C41.5172 128.397 46.9312 129.024 52.316 129.666C68.1348 131.505 84.4206 133.431 100.473 136.963C102.151 137.649 103.712 138.305 105.259 138.962C118.057 144.332 131.293 149.892 145.638 150.636C172.387 154.212 191.635 165.098 212.328 180.348C230.759 196.838 247.599 215.064 263.885 232.707C271.459 240.908 279.281 249.387 287.234 257.603C305.679 275.027 324.446 290.627 351.02 289.532L356.944 289.678C374.135 290.043 391.967 290.437 406.371 301.849L405.48 303.06Z" fill="white"/>
</svg>
