<svg width="338" height="392" viewBox="0 0 338 392" fill="none" xmlns="http://www.w3.org/2000/svg">
<path d="M183.974 3.39167L0 0V13.9277L183.974 10.5361L368.101 7.14439V6.78334L183.974 3.39167Z" fill="#614DD5"/>
<path d="M183.974 17.932L0 14.792V28.2164L183.974 25.0764L368.101 21.9582V21.0611L183.974 17.932Z" fill="#614DD5"/>
<path d="M183.974 32.4727L0 29.5952V42.5054L183.974 39.617L368.101 36.7724V35.3282L183.974 32.4727Z" fill="#614DD5"/>
<path d="M183.974 47.013L0 44.3872V56.7941L183.974 54.1574L368.101 51.5753V49.5951L183.974 47.013Z" fill="#614DD5"/>
<path d="M183.974 61.5536L0 59.1794V71.0831L183.974 68.698L368.101 66.3895V63.8731L183.974 61.5536Z" fill="#614DD5"/>
<path d="M183.974 76.0937L0 73.9712V85.3716L183.974 83.2381L368.101 81.1922V78.1506L183.974 76.0937Z" fill="#614DD5"/>
<path d="M183.974 90.6341L0 88.7742V99.6494L183.974 97.7785L368.101 96.0061V92.4175L183.974 90.6341Z" fill="#614DD5"/>
<path d="M183.974 105.174L0 103.566V113.938L183.974 112.33L368.101 110.809V106.695L183.974 105.174Z" fill="#614DD5"/>
<path d="M183.974 119.726L0 118.369V128.227L183.974 126.87L368.101 125.612V120.973L183.974 119.726Z" fill="#614DD5"/>
<path d="M183.974 134.256L0 133.162V142.505L183.974 141.411L368.101 140.415V135.251L183.974 134.256Z" fill="#614DD5"/>
<path d="M183.974 148.807L0 147.964V156.782L183.974 155.951L368.101 155.218V149.529L183.974 148.807Z" fill="#614DD5"/>
<path d="M183.974 221.508L0 221.968V228.193L183.974 228.653L368.101 229.233V220.928L183.974 221.508Z" fill="#614DD5"/>
<path d="M183.974 236.049L0 236.771V242.471L183.974 243.193L368.101 244.036V235.207L183.974 236.049Z" fill="#614DD5"/>
<path d="M183.974 250.589L0 251.574V256.749L183.974 257.734L368.101 258.828V249.484L183.974 250.589Z" fill="#614DD5"/>
<path d="M183.974 265.13L0 266.377V271.027L183.974 272.274L368.101 273.631V263.773L183.974 265.13Z" fill="#614DD5"/>
<path d="M183.974 279.67L0 281.18V285.294L183.974 286.815L368.101 288.434V278.062L183.974 279.67Z" fill="#614DD5"/>
<path d="M183.974 294.211L0 295.994V299.572L183.974 301.355L368.101 303.226V292.34L183.974 294.211Z" fill="#614DD5"/>
<path d="M183.974 308.751L0 310.797V313.849L183.974 315.895L368.101 318.018V306.628L183.974 308.751Z" fill="#614DD5"/>
<path d="M183.974 323.292L0 325.611V328.127L183.974 330.436L368.101 332.821V320.906L183.974 323.292Z" fill="#614DD5"/>
<path d="M183.974 337.832L0 340.414V342.394L183.974 344.976L368.101 347.613V335.195L183.974 337.832Z" fill="#614DD5"/>
<path d="M183.974 352.372L0 355.228V356.672L183.974 359.517L368.101 362.405V349.484L183.974 352.372Z" fill="#614DD5"/>
<path d="M183.974 366.913L0 370.031V370.939L183.974 374.057L368.101 377.197V363.773L183.974 366.913Z" fill="#614DD5"/>
<path d="M183.974 381.453L0 384.845V385.217L183.974 388.597L368.101 392V378.061L183.974 381.453Z" fill="#614DD5"/>
</svg>
