<svg width="560" height="596" viewBox="0 0 560 596" fill="none" xmlns="http://www.w3.org/2000/svg">
<path d="M279.715 5.15672L0 0V21.1758L279.715 16.0191L559.663 10.8624V10.3134L279.715 5.15672Z" fill="#614DD5"/>
<path d="M279.715 27.2641L0 22.49V42.9006L279.715 38.1265L559.663 33.3856V32.0216L279.715 27.2641Z" fill="#614DD5"/>
<path d="M279.715 49.3715L0 44.9966V64.6254L279.715 60.2338L559.663 55.9088V53.7131L279.715 49.3715Z" fill="#614DD5"/>
<path d="M279.715 71.4789L0 67.4866V86.3502L279.715 82.3412L559.663 78.4155V75.4046L279.715 71.4789Z" fill="#614DD5"/>
<path d="M279.715 93.5863L0 89.9766V108.075L279.715 104.449L559.663 100.939V97.1128L279.715 93.5863Z" fill="#614DD5"/>
<path d="M279.715 115.693L0 112.466V129.8L279.715 126.556L559.663 123.445V118.821L279.715 115.693Z" fill="#614DD5"/>
<path d="M279.715 137.801L0 134.973V151.508L279.715 148.663L559.663 145.968V140.512L279.715 137.801Z" fill="#614DD5"/>
<path d="M279.715 159.908L0 157.463V173.232L279.715 170.787L559.663 168.475V162.22L279.715 159.908Z" fill="#614DD5"/>
<path d="M279.715 182.032L0 179.969V194.957L279.715 192.895L559.663 190.982V183.929L279.715 182.032Z" fill="#614DD5"/>
<path d="M279.715 204.123L0 202.459V216.665L279.715 215.002L559.663 213.488V205.637L279.715 204.123Z" fill="#614DD5"/>
<path d="M279.715 226.247L0 224.966V238.373L279.715 237.109L559.663 235.995V227.345L279.715 226.247Z" fill="#614DD5"/>
<path d="M279.715 248.354L0 247.472V260.098L279.715 259.216L559.663 258.501V249.053L279.715 248.354Z" fill="#614DD5"/>
<path d="M279.715 270.462L0 269.963V281.806L279.715 281.324L559.663 281.008V270.761L279.715 270.462Z" fill="#614DD5"/>
<path d="M279.715 292.569L0 292.469V303.514L279.715 303.431L559.663 303.514V292.469L279.715 292.569Z" fill="#614DD5"/>
<path d="M279.715 314.676L0 314.976V325.239L279.715 325.539L559.663 326.021V314.177L279.715 314.676Z" fill="#614DD5"/>
<path d="M279.715 336.783L0 337.482V346.947L279.715 347.646L559.663 348.528V335.902L279.715 336.783Z" fill="#614DD5"/>
<path d="M279.715 358.891L0 359.989V368.655L279.715 369.753L559.663 371.034V357.61L279.715 358.891Z" fill="#614DD5"/>
<path d="M279.715 380.998L0 382.495V390.363L279.715 391.861L559.663 393.524V379.318L279.715 380.998Z" fill="#614DD5"/>
<path d="M279.715 403.106L0 405.002V412.072L279.715 413.968L559.663 416.031V401.043L279.715 403.106Z" fill="#614DD5"/>
<path d="M279.715 425.213L0 427.508V433.763L279.715 436.075L559.663 438.537V422.768L279.715 425.213Z" fill="#614DD5"/>
<path d="M279.715 447.32L0 450.032V455.471L279.715 458.183L559.663 461.027V444.476L279.715 447.32Z" fill="#614DD5"/>
<path d="M279.715 469.428L0 472.538V477.179L279.715 480.29L559.663 483.517V466.2L279.715 469.428Z" fill="#614DD5"/>
<path d="M279.715 491.535L0 495.062V498.887L279.715 502.397L559.663 506.024V487.909L279.715 491.535Z" fill="#614DD5"/>
<path d="M279.715 513.642L0 517.568V520.579L279.715 524.505L559.663 528.514V509.634L279.715 513.642Z" fill="#614DD5"/>
<path d="M279.715 535.75L0 540.091V542.287L279.715 546.612L559.663 551.004V531.358L279.715 535.75Z" fill="#614DD5"/>
<path d="M279.715 557.857L0 562.598V563.978L279.715 568.719L559.663 573.493V553.083L279.715 557.857Z" fill="#614DD5"/>
<path d="M279.715 579.964L0 585.121V585.687L279.715 590.827L559.663 596V574.808L279.715 579.964Z" fill="#614DD5"/>
</svg>
